<?xml version="1.0" encoding="UTF-8"?>
<svg width="45px" height="45px" viewBox="0 0 45 45" version="1.1" xmlns="http://www.w3.org/2000/svg" xmlns:xlink="http://www.w3.org/1999/xlink">
    <!-- Generator: Sketch 50 (54983) - http://www.bohemiancoding.com/sketch -->
    <title>icon-settings</title>
    <desc>Created with Sketch.</desc>
    <defs></defs>
    <g id="icon-settings" stroke="none" stroke-width="1" fill="none" fill-rule="evenodd">
        <path d="M25.5031133,12.3099368 C26.8231753,12.6767197 28.0437946,13.2824128 29.1154692,14.0775141 L31.739905,11.952288 L35.4713366,16.5602223 L32.7607534,18.7552093 C33.2337273,19.9046652 33.5184659,21.1514352 33.5765906,22.4571407 L37.0244015,23.2531305 L35.6905984,29.0304665 L32.2476101,28.23559 C31.6293963,29.370278 30.8180683,30.3845848 29.8577742,31.234362 L31.3697159,34.3343018 L26.0404931,36.9335374 L24.5257808,33.827917 C23.881097,33.9450047 23.2169204,34.0061538 22.5384615,34.0061538 C21.8600027,34.0061538 21.1958261,33.9450047 20.5511423,33.827917 L19.03643,36.9335374 L13.7072072,34.3343018 L15.2191489,31.234362 C14.2588548,30.3845848 13.4475267,29.370278 12.829313,28.23559 L9.38632463,29.0304665 L8.05252153,23.2531305 L11.5003325,22.4571407 C11.5584571,21.1514352 11.8431958,19.9046652 12.3161697,18.7552093 L9.60558646,16.5602223 L13.3370181,11.952288 L15.9614539,14.0775141 C17.0331284,13.2824128 18.2537477,12.6767197 19.5738097,12.3099368 L19.5738097,9 L25.5031133,9 L25.5031133,12.3099368 Z" id="Combined-Shape" stroke="#FFFFFF"></path>
        <circle id="Oval-6" stroke="#FFFFFF" cx="22.5384615" cy="22.9569231" r="5.23384615"></circle>
    </g>
</svg>