<svg xmlns="http://www.w3.org/2000/svg" viewBox="0 0 20.91 20.17"><defs><style>.cls-1{fill:none;stroke:#fff;stroke-miterlimit:10;}</style></defs><title>settings</title><g id="Layer_2" data-name="Layer 2"><g id="Layer_1-2" data-name="Layer 1"><path class="cls-1" d="M12.47,2.75A7.49,7.49,0,0,1,14.93,4l1.79-1.45,2.54,3.13L17.41,7.14A7.48,7.48,0,0,1,18,9.65l2.35.54-.91,3.93-2.34-.54a7.55,7.55,0,0,1-1.63,2l1,2.11L12.84,19.5l-1-2.11a7.6,7.6,0,0,1-2.7,0l-1,2.11L4.45,17.73l1-2.11a7.55,7.55,0,0,1-1.63-2l-2.34.54L.6,10.2l2.35-.54A7.48,7.48,0,0,1,3.5,7.14L1.66,5.64,4.19,2.51,6,4a7.49,7.49,0,0,1,2.46-1.2V.5h4Z"/><circle class="cls-1" cx="10.45" cy="10" r="3.52"/></g></g></svg>